<svg xmlns="http://www.w3.org/2000/svg" viewBox="0 0 483.63 147.5"><defs><style>.cls-1{fill:#231f20;}</style></defs><title>Logo</title><g id="Layer_2" data-name="Layer 2"><g id="Logo"><path class="cls-1" d="M60.2,143.5q-13.39,0-21.2-7.5t-7.8-20.5V47.9H0V33.5H31.2V2.5h16v31H91.4V47.9H47.2v67.6q0,6.41,3.5,10t9.5,3.6H89.4v14.4Z"/><path class="cls-1" d="M168.2,145.5q-19.2,0-30.6-11.3t-11.4-30.1V72.9q0-18.8,11.4-30.1t30.6-11.3q19.2,0,30.6,11.3t11.4,30.1V92.3H141.8v11.8q0,13.4,6.9,20.7t19.5,7.3q10.59,0,17.2-4.2a19.5,19.5,0,0,0,8.6-12.2h15.8a32,32,0,0,1-13.4,21.8Q185.2,145.5,168.2,145.5ZM141.8,79.9h52.8v-7q0-13.4-6.8-20.7t-19.6-7.3q-12.81,0-19.6,7.3t-6.8,20.7Z"/><path class="cls-1" d="M288.4,102.7V71.5"/><path class="cls-1" d="M449.63,146q-14.19,0-22.5-8.1t-8.3-21.9V14.4h-37.6V0h53.4V116q0,7.4,4,11.5t11,4.1h34V146Z"/><g id="Layer_3" data-name="Layer 3"><polygon class="cls-1" points="341.76 95.7 304.16 95.7 304.16 81.3 341.81 81.3 341.76 95.7"/><path class="cls-1" d="M331,147.5q-19.41,0-31-11.1t-11.6-30.3V74.9q0-19.2,11.6-30.3t31-11.1q19,0,30.3,10.2T373,71.5H357.2q-.4-11.2-7.3-17.5T331,47.7q-12.21,0-19.4,7.1t-7.2,20.1v31.2q0,13,7.2,20.1t19.4,7.1q12,0,18.9-6.3t7.3-17.5H373q-.4,17.6-11.7,27.8T331,147.5Z"/><path class="cls-1" d="M288.4,96.7q-1,1.6-2.5,4.3t-2.9,4.9l-25,37.6H239.6l39-56.6L242,33.5h18.6l23.2,35.6q1.2,2,2.5,4.4t2.1,4Z"/></g></g></g></svg>