<svg xmlns="http://www.w3.org/2000/svg" viewBox="0 0 133.4 114"><defs><style>.cls-1{fill:#231f20;}</style></defs><title>Smlogo</title><g id="Layer_2" data-name="Layer 2"><g id="Smlogo"><polygon class="cls-1" points="102.16 62.2 64.56 62.2 64.56 47.8 102.21 47.8 102.16 62.2"/><path class="cls-1" d="M91.4,114q-19.4,0-31-11.1T48.8,72.6V41.4q0-19.2,11.6-30.3T91.4,0q19,0,30.3,10.2T133.4,38H117.6q-.41-11.2-7.3-17.5T91.4,14.2q-12.2,0-19.4,7.1T64.8,41.4V72.6q0,13,7.2,20.1t19.4,7.1q12,0,18.9-6.3T117.6,76h15.8q-.41,17.6-11.7,27.8T91.4,114Z"/><path class="cls-1" d="M48.8,63.2q-1,1.6-2.5,4.3t-2.9,4.9L18.4,110H0L39,53.4,2.4,0H21L44.2,35.6q1.2,2,2.5,4.4t2.1,4Z"/></g></g></svg>